<svg xmlns="http://www.w3.org/2000/svg" viewBox="0 0 100 100"><defs><clipPath id="lines"><rect x="46.88" y="34.38" width="31.25" height="6.25" rx="3.13"/><rect x="21.88" y="46.88" width="40.63" height="6.25" rx="3.13"/><rect x="40.63" y="59.38" width="28.13" height="6.25" rx="3.13"/></clipPath></defs><rect width="100" height="100" rx="15.63" fill="#f2f2f3"/><g clip-path="url(#lines)"><path d="M21.99 78.01L6.36 -10.62L24.5 -11.96Z" fill="#0e56fd"/><path d="M21.99 78.01L23.56 -11.98L26.07 -11.9Z" fill="#1d58f9"/><path d="M21.99 78.01L25.13 -11.94L27.64 -11.81Z" fill="#275af5"/><path d="M21.99 78.01L26.7 -11.87L29.21 -11.7Z" fill="#305cf0"/><path d="M21.99 78.01L28.27 -11.77L30.77 -11.56Z" fill="#375dec"/><path d="M21.99 78.01L29.84 -11.65L32.34 -11.4Z" fill="#3e5fe8"/><path d="M21.99 78.01L31.4 -11.5L33.9 -11.2Z" fill="#4460e4"/><path d="M21.99 78.01L32.96 -11.32L35.45 -10.98Z" fill="#4a61e0"/><path d="M21.99 78.01L34.52 -11.12L37 -10.73Z" fill="#5062dc"/><path d="M21.99 78.01L36.07 -10.88L38.55 -10.46Z" fill="#5663d8"/><path d="M21.99 78.01L37.62 -10.62L40.09 -10.15Z" fill="#5b64d3"/><path d="M21.99 78.01L39.16 -10.34L41.62 -9.82Z" fill="#6065cf"/><path d="M21.99 78.01L40.7 -10.03L43.15 -9.47Z" fill="#6565cb"/><path d="M21.99 78.01L42.24 -9.69L44.68 -9.09Z" fill="#6a66c7"/><path d="M21.99 78.01L43.76 -9.32L46.19 -8.68Z" fill="#6f66c2"/><path d="M21.99 78.01L45.29 -8.93L47.7 -8.24Z" fill="#7467be"/><path d="M21.99 78.01L46.8 -8.51L49.21 -7.78Z" fill="#7867ba"/><path d="M21.99 78.01L48.31 -8.06L50.7 -7.29Z" fill="#7d67b6"/><path d="M21.99 78.01L49.8 -7.59L52.18 -6.78Z" fill="#8167b1"/><path d="M21.99 78.01L51.29 -7.09L53.66 -6.24Z" fill="#8667ad"/><path d="M21.99 78.01L52.77 -6.56L55.12 -5.67Z" fill="#8a67a9"/><path d="M21.99 78.01L54.25 -6.01L56.58 -5.08Z" fill="#8f67a4"/><path d="M21.99 78.01L55.71 -5.44L58.02 -4.46Z" fill="#9366a0"/><path d="M21.99 78.01L57.16 -4.84L59.46 -3.82Z" fill="#97669b"/><path d="M21.99 78.01L58.6 -4.21L60.88 -3.16Z" fill="#9c6597"/><path d="M21.99 78.01L60.03 -3.56L62.29 -2.47Z" fill="#a06592"/><path d="M21.99 78.01L61.45 -2.88L63.69 -1.75Z" fill="#a4648e"/><path d="M21.99 78.01L62.85 -2.18L65.07 -1.01Z" fill="#a86389"/><path d="M21.99 78.01L64.24 -1.46L66.45 -0.25Z" fill="#ad6284"/><path d="M21.99 78.01L65.62 -0.71L67.81 0.54Z" fill="#b1617f"/><path d="M21.99 78.01L66.99 0.07L69.15 1.35Z" fill="#b5607b"/><path d="M21.99 78.01L68.35 0.86L70.48 2.19Z" fill="#b95f76"/><path d="M21.99 78.01L69.68 1.68L71.8 3.05Z" fill="#bd5d70"/><path d="M21.99 78.01L71.01 2.53L73.1 3.93Z" fill="#c15c6b"/><path d="M21.99 78.01L72.32 3.39L74.38 4.83Z" fill="#c55a66"/><path d="M21.99 78.01L73.61 4.28L75.65 5.75Z" fill="#c95860"/><path d="M21.99 78.01L74.89 5.2L76.91 6.7Z" fill="#cd565a"/><path d="M21.99 78.01L76.16 6.13L78.14 7.67Z" fill="#d15454"/><path d="M21.99 78.01L77.4 7.09L79.36 8.66Z" fill="#d5524e"/><path d="M21.99 78.01L78.63 8.06L80.56 9.67Z" fill="#d94f47"/><path d="M21.99 78.01L79.84 9.06L81.75 10.71Z" fill="#dd4d40"/><path d="M21.99 78.01L81.04 10.08L82.91 11.76Z" fill="#e14937"/><path d="M21.99 78.01L82.21 11.12L84.06 12.83Z" fill="#e5462e"/><path d="M21.99 78.01L83.37 12.19L85.19 13.93Z" fill="#e94222"/><path d="M21.99 78.01L84.51 13.27L86.29 15.04Z" fill="#ed3e10"/><path d="M21.99 78.01L85.63 14.37L87.38 16.17Z" fill="#ef3e00"/><path d="M21.99 78.01L86.73 15.49L88.45 17.32Z" fill="#f04200"/><path d="M21.99 78.01L87.81 16.63L89.5 18.49Z" fill="#f04600"/><path d="M21.99 78.01L88.88 17.79L90.53 19.68Z" fill="#f14900"/><path d="M21.99 78.01L89.92 18.96L91.54 20.88Z" fill="#f24d00"/><path d="M21.99 78.01L90.94 20.16L92.52 22.1Z" fill="#f25000"/><path d="M21.99 78.01L91.94 21.37L93.49 23.34Z" fill="#f35300"/><path d="M21.99 78.01L92.91 22.6L94.43 24.6Z" fill="#f35600"/><path d="M21.99 78.01L93.87 23.84L95.35 25.87Z" fill="#f45900"/><path d="M21.99 78.01L94.8 25.11L96.25 27.16Z" fill="#f45c00"/><path d="M21.99 78.01L95.72 26.39L97.13 28.46Z" fill="#f55f00"/><path d="M21.99 78.01L96.61 27.68L97.98 29.78Z" fill="#f56200"/><path d="M21.99 78.01L97.47 28.99L98.81 31.12Z" fill="#f66500"/><path d="M21.99 78.01L98.32 30.32L99.62 32.46Z" fill="#f66800"/><path d="M21.99 78.01L99.14 31.65L100.4 33.83Z" fill="#f76b00"/><path d="M21.99 78.01L99.93 33.01L101.16 35.2Z" fill="#f76e00"/><path d="M21.99 78.01L100.71 34.38L101.9 36.59Z" fill="#f77000"/><path d="M21.99 78.01L101.46 35.76L102.61 37.99Z" fill="#f87300"/><path d="M21.99 78.01L102.18 37.15L103.29 39.4Z" fill="#f87600"/><path d="M21.99 78.01L102.88 38.55L103.95 40.83Z" fill="#f97800"/><path d="M21.99 78.01L103.56 39.97L104.59 42.26Z" fill="#f97b00"/><path d="M21.99 78.01L104.21 41.4L105.2 43.71Z" fill="#f97e00"/><path d="M21.99 78.01L104.84 42.84L105.79 45.17Z" fill="#fa8000"/><path d="M21.99 78.01L105.44 44.29L106.35 46.64Z" fill="#fa8300"/><path d="M21.99 78.01L106.01 45.75L106.88 48.11Z" fill="#fb8500"/><path d="M21.99 78.01L106.56 47.23L107.39 49.6Z" fill="#fb8800"/><path d="M21.99 78.01L107.09 48.71L107.87 51.09Z" fill="#fb8a00"/><path d="M21.99 78.01L107.59 50.2L108.33 52.6Z" fill="#fc8d00"/><path d="M21.99 78.01L108.06 51.69L108.76 54.11Z" fill="#fc8f00"/><path d="M21.99 78.01L108.51 53.2L109.16 55.63Z" fill="#fc9200"/><path d="M21.99 78.01L108.93 54.71L109.54 57.15Z" fill="#fc9400"/><path d="M21.99 78.01L109.32 56.24L109.89 58.68Z" fill="#fd9700"/><path d="M21.99 78.01L109.69 57.76L110.22 60.22Z" fill="#fd9900"/><path d="M21.99 78.01L110.03 59.3L110.51 61.76Z" fill="#fd9c00"/><path d="M21.99 78.01L110.34 60.84L110.78 63.31Z" fill="#fd9e00"/><path d="M21.99 78.01L110.62 62.38L111.03 64.86Z" fill="#fea000"/><path d="M21.99 78.01L110.88 63.93L111.24 66.42Z" fill="#fea300"/><path d="M21.99 78.01L111.12 65.48L111.43 67.98Z" fill="#fea500"/><path d="M21.99 78.01L111.32 67.04L111.59 69.54Z" fill="#fea800"/><path d="M21.99 78.01L111.5 68.6L111.73 71.1Z" fill="#feaa00"/><path d="M21.99 78.01L111.65 70.16L111.83 72.67Z" fill="#feac00"/><path d="M21.99 78.01L111.77 71.73L111.91 74.24Z" fill="#ffaf00"/><path d="M21.99 78.01L111.87 73.3L111.97 75.81Z" fill="#ffb100"/><path d="M21.99 78.01L111.94 74.87L111.99 77.38Z" fill="#ffb300"/><path d="M21.99 78.01L111.98 76.44L111.99 78.95Z" fill="#ffb600"/></g></svg>